<?xml version="1.0" encoding="UTF-8" standalone="no"?>
<!-- Created with Inkscape (http://www.inkscape.org/) -->

<svg
   xmlns:dc="http://purl.org/dc/elements/1.1/"
   xmlns:cc="http://creativecommons.org/ns#"
   xmlns:rdf="http://www.w3.org/1999/02/22-rdf-syntax-ns#"
   xmlns:svg="http://www.w3.org/2000/svg"
   xmlns="http://www.w3.org/2000/svg"
   xmlns:sodipodi="http://sodipodi.sourceforge.net/DTD/sodipodi-0.dtd"
   xmlns:inkscape="http://www.inkscape.org/namespaces/inkscape"
   width="133"
   height="133"
   id="svg26379"
   version="1.1"
   inkscape:version="0.48.4 r9939"
   sodipodi:docname="New document 23">
  <defs
     id="defs26381" />
  <sodipodi:namedview
     id="base"
     pagecolor="#ffffff"
     bordercolor="#666666"
     borderopacity="1.0"
     inkscape:pageopacity="0.0"
     inkscape:pageshadow="2"
     inkscape:zoom="0.35"
     inkscape:cx="49.857143"
     inkscape:cy="49.857143"
     inkscape:document-units="px"
     inkscape:current-layer="layer1"
     showgrid="false"
     inkscape:window-width="707"
     inkscape:window-height="449"
     inkscape:window-x="0"
     inkscape:window-y="0"
     inkscape:window-maximized="0" />
  <metadata
     id="metadata26384">
    <rdf:RDF>
      <cc:Work
         rdf:about="">
        <dc:format>image/svg+xml</dc:format>
        <dc:type
           rdf:resource="http://purl.org/dc/dcmitype/StillImage" />
        <dc:title></dc:title>
      </cc:Work>
    </rdf:RDF>
  </metadata>
  <g
     inkscape:label="Layer 1"
     inkscape:groupmode="layer"
     id="layer1"
     transform="translate(0,-919.36218)">
    <path
       inkscape:connector-curvature="0"
       id="rect198927-4"
       d="m 10.471711,919.36217 c -2.603197,0 -4.710023,2.43211 -4.710023,5.43706 l 0,104.46817 -2.469366,0 C 1.457721,1029.2674 0,1030.9504 0,1033.068 l 0,9.5549 c 0,2.1177 1.457721,3.8271 3.292322,3.8271 l 6.013297,0 0,-0.5543 c 0,-1.1035 0.804479,-2.0324 1.760552,-2.0324 l 7.270773,0 c 0.955929,0 1.76048,0.9289 1.76048,2.0324 l 0,0.5543 93.102346,0 0,-0.5543 c 0,-1.1035 0.80462,-2.0324 1.76055,-2.0324 l 7.27078,0 c 0.95592,0 1.76055,0.9289 1.76055,2.0324 l 0,0.5543 5.69306,0 c 1.8346,0 3.31529,-1.7094 3.31529,-3.8271 l 0,-9.5549 c 0,-2.1176 -1.48069,-3.8006 -3.31529,-3.8006 l -2.9952,0 0,-104.46817 c 0,-3.00495 -2.084,-5.43706 -4.68705,-5.43706 l -6.17338,0 c -2.37092,0 -4.33536,2.01673 -4.66423,4.64525 l -89.878507,0 c -0.328868,-2.62852 -2.270404,-4.64525 -4.641395,-4.64525 l -6.173237,0 z m 10.860431,19.13563 89.787058,0 0,15.75738 7.45368,0 c 2.40966,0 4.38979,2.28585 4.38979,5.06771 l 0,9.47546 c 0,2.78186 -1.98013,5.06771 -4.38979,5.06771 l -7.45368,0 0,55.40134 -89.787058,0 0,-55.40134 -8.025315,0 c -2.409799,0 -4.389929,-2.28585 -4.389929,-5.06771 l 0,-9.47546 c 0,-2.78186 1.98013,-5.06771 4.389929,-5.06771 l 8.025315,0 0,-15.75738 z m 33.701517,6.8098 c -0.736209,0 -1.326103,0.6808 -1.326103,1.53076 l 0,9.95072 -40.400729,0 c -1.231794,0 -2.194929,1.11183 -2.194929,2.53381 l 0,9.47546 c 0,1.42198 0.963135,2.53382 2.194929,2.53382 l 40.400729,0 0,4.01187 c 0,0.84996 0.589894,1.53093 1.326103,1.53093 l 2.560821,0 0.914554,5.72752 5.464422,5.75396 -0.137111,0.10549 c 0,0 0.920189,1.61221 1.028837,4.06467 0.108719,2.45261 -0.549874,5.68881 -4.161219,9.07979 -1.749994,1.643 -2.955821,3.1541 -3.703943,4.6188 l -2.423638,0 c -2.603125,0 -4.709951,2.4057 -4.709951,5.4109 l 0,10.0561 c 0,3.005 2.106826,5.4372 4.709951,5.4372 l 22.201038,0 c 2.60306,0 4.68705,-2.4322 4.68705,-5.4372 l 0,-10.0561 c 0,-3.0052 -2.08399,-5.4109 -4.68705,-5.4109 l -17.513986,0 c 0.615718,-0.8963 1.452585,-1.8724 2.606549,-2.9561 3.985728,-3.74238 4.982035,-7.80795 4.847134,-10.84807 -0.06492,-1.46365 -0.376379,-2.69589 -0.685772,-3.58949 l 5.395795,-5.33157 1.257618,-6.625 2.972232,0 c 0.73628,0 1.3261,-0.68097 1.3261,-1.53093 l 0,-4.01187 41.58979,0 c 1.23165,0 2.19493,-1.11184 2.19493,-2.53382 l 0,-9.47546 c 0,-1.42198 -0.96328,-2.53381 -2.19493,-2.53381 l -41.58979,0 0,-9.95072 c 0,-0.84996 -0.58982,-1.53076 -1.3261,-1.53076 l -20.623331,0 z m -43.533111,101.0896 0,5.965 6.401876,0 0,-5.965 -6.401876,0 z m 103.894152,0 0,5.965 6.40202,0 0,-5.965 -6.40202,0 z"
       style="fill:#000000;fill-opacity:1;stroke:none" />
  </g>
</svg>
