<?xml version="1.0" encoding="UTF-8" standalone="no"?>
<!-- Created with Inkscape (http://www.inkscape.org/) -->

<svg
   xmlns:dc="http://purl.org/dc/elements/1.1/"
   xmlns:cc="http://creativecommons.org/ns#"
   xmlns:rdf="http://www.w3.org/1999/02/22-rdf-syntax-ns#"
   xmlns:svg="http://www.w3.org/2000/svg"
   xmlns="http://www.w3.org/2000/svg"
   xmlns:sodipodi="http://sodipodi.sourceforge.net/DTD/sodipodi-0.dtd"
   xmlns:inkscape="http://www.inkscape.org/namespaces/inkscape"
   width="133"
   height="133"
   id="svg3646"
   version="1.1"
   inkscape:version="0.48.4 r9939"
   sodipodi:docname="da_logo_blk.svg">
  <defs
     id="defs3648" />
  <sodipodi:namedview
     id="base"
     pagecolor="#ffffff"
     bordercolor="#666666"
     borderopacity="1.0"
     inkscape:pageopacity="0.0"
     inkscape:pageshadow="2"
     inkscape:zoom="1"
     inkscape:cx="198.78767"
     inkscape:cy="150.62882"
     inkscape:document-units="px"
     inkscape:current-layer="layer1"
     showgrid="false"
     inkscape:window-width="1024"
     inkscape:window-height="720"
     inkscape:window-x="0"
     inkscape:window-y="0"
     inkscape:window-maximized="1"
     fit-margin-top="1"
     fit-margin-left="1"
     fit-margin-right="1"
     fit-margin-bottom="1" />
  <metadata
     id="metadata3651">
    <rdf:RDF>
      <cc:Work
         rdf:about="">
        <dc:format>image/svg+xml</dc:format>
        <dc:type
           rdf:resource="http://purl.org/dc/dcmitype/StillImage" />
        <dc:title />
      </cc:Work>
    </rdf:RDF>
  </metadata>
  <g
     inkscape:label="Layer 1"
     inkscape:groupmode="layer"
     id="layer1"
     transform="translate(-278.5761,-338.17917)">
    <g
       id="g4413"
       transform="matrix(0.66572064,0,0,0.65723076,-52.746841,229.45282)">
      <path
         id="path4415"
         d="m 604.79706,172.79283 c -6.56575,-2.9253 5.87176,4.60393 14.06722,8.65352 1.41851,0.69608 2.49111,1.20294 3.40958,1.62851 l -0.60891,-1.45657 c -1.60185,-0.99612 -3.10286,-1.87681 -3.10286,-1.87681 -7.27277,-3.81315 -11.57648,-5.97354 -13.76503,-6.94865 z"
         style="fill:#ffffff;fill-opacity:1;stroke:#ffffff;stroke-width:0.44820446;stroke-linecap:butt;stroke-linejoin:miter;stroke-miterlimit:4;stroke-opacity:1;stroke-dasharray:none"
         inkscape:connector-curvature="0" />
      <path
         inkscape:connector-curvature="0"
         style="fill:#ffffff;fill-opacity:1;stroke:#ffffff;stroke-width:0.44820446;stroke-linecap:butt;stroke-linejoin:miter;stroke-miterlimit:4;stroke-opacity:1;stroke-dasharray:none"
         d="m 595.56106,177.12985 c -6.94678,-1.84625 6.52798,3.61375 15.26225,6.31141 1.511,0.46214 2.65044,0.79236 3.62481,1.06678 l -0.83235,-1.34148 c -1.73963,-0.72929 -3.36138,-1.36061 -3.36138,-1.36061 -7.78575,-2.61065 -12.37777,-4.06067 -14.69333,-4.6761 z"
         id="path4417" />
      <path
         id="path4419"
         d="m 590.08603,182.58564 c -7.07804,-1.25212 6.81022,3.0487 15.74135,4.99799 1.54468,0.3327 2.70796,0.56537 3.70205,0.7564 l -0.94282,-1.26628 c -1.79508,-0.57955 -3.46441,-1.07145 -3.46441,-1.07145 -7.97865,-1.94282 -12.67685,-2.99928 -15.03617,-3.41666 z"
         style="fill:#ffffff;fill-opacity:1;stroke:#ffffff;stroke-width:0.44820446;stroke-linecap:butt;stroke-linejoin:miter;stroke-miterlimit:4;stroke-opacity:1;stroke-dasharray:none"
         inkscape:connector-curvature="0" />
      <text
         xml:space="preserve"
         style="font-size:61.77799988px;font-style:normal;font-variant:normal;font-weight:normal;font-stretch:normal;line-height:125%;letter-spacing:0px;word-spacing:0px;fill:#ffffff;fill-opacity:1;stroke:none;font-family:Alegreya Sans SC;-inkscape-font-specification:Alegreya Sans SC"
         x="649.96417"
         y="339.87766"
         id="text4421"
         sodipodi:linespacing="125%"><tspan
           style="font-weight:bold;fill:#ffffff;-inkscape-font-specification:Alegreya Sans SC Bold"
           sodipodi:role="line"
           id="tspan4423"
           x="649.96417"
           y="339.87766">A</tspan></text>
      <path
         d="m 616.4375,306.21875 a 0.65902224,0.65902224 0 0 0 -0.0937,0.0625 l -7.125,3.03125 a 0.65902224,0.65902224 0 0 0 0.15625,1.25 c 0,0 6.873,0.87255 10.1875,2.25 1.70693,0.70937 3.70935,1.80766 4.8125,3.0625 0.55158,0.62742 0.86373,1.28356 0.90625,1.9375 0.0425,0.65394 -0.15979,1.38516 -0.875,2.25 -1.22294,1.47881 -1.8858,2.79147 -2.21875,3.75 -0.33295,0.95853 -0.34375,1.59375 -0.34375,1.59375 a 0.65902224,0.65902224 0 0 0 0.28125,0.5625 c 0,0 0.0913,0.0676 0.15625,0.0937 0.0649,0.0261 0.13276,0.0474 0.21875,0.0625 0.17198,0.0302 0.37976,0.0388 0.65625,0 0.55299,-0.0776 1.36598,-0.32361 2.65625,-0.96875 1.47495,-0.73747 2.68453,-2.31161 3.59375,-3.6875 0.26348,-0.39871 0.23453,-0.40381 0.4375,-0.75 0.0995,1.44791 0.12573,3.21538 -0.15625,4.53125 -0.18959,0.88477 -1.32372,1.89493 -2.53125,2.59375 -1.20753,0.69882 -2.375,1.09375 -2.375,1.09375 a 0.65902224,0.65902224 0 0 0 -0.4375,0.71875 c 0,0 0.0922,0.56399 0.53125,1.15625 0.43904,0.59226 1.24596,1.28293 2.59375,1.78125 1.56048,0.57695 2.85208,0.5781 3.9375,0.0937 1.08542,-0.48435 1.89327,-1.36811 2.71875,-2.46875 1.00314,-1.33752 1.11894,-3.38974 1.09375,-5.53125 -0.0252,-2.14151 -0.26515,-4.41156 -0.3125,-6.0625 -0.0682,-2.37661 -1.06537,-4.35001 -2.125,-5.78125 -1.05963,-1.43124 -2.10483,-2.28088 -2.625,-2.59375 -0.14199,-0.0854 -0.23145,-0.1022 -0.375,-0.15625 -0.14355,-0.0541 -0.32148,-0.11747 -0.53125,-0.1875 -0.41953,-0.14006 -0.98574,-0.33575 -1.625,-0.53125 -1.27851,-0.39099 -2.89039,-0.84654 -4.5,-1.3125 -3.21922,-0.93192 -6.34375,-1.8125 -6.34375,-1.8125 a 0.65902224,0.65902224 0 0 0 -0.34375,-0.0313 z"
         id="path4425"
         style="fill:#000000;fill-opacity:1;stroke:#ffffff;stroke-width:2;stroke-linecap:butt;stroke-linejoin:miter;stroke-miterlimit:4;stroke-opacity:1;stroke-dasharray:none"
         inkscape:original="M 616.59375 306.875 L 609.46875 309.90625 C 609.46875 309.90625 616.30227 310.75996 619.8125 312.21875 C 623.32273 313.67754 628.07907 316.6321 624.90625 320.46875 C 622.56017 323.30569 622.5 325.4375 622.5 325.4375 C 622.5 325.4375 623.03125 325.8125 625.53125 324.5625 C 628.03125 323.3125 630.3125 318.59375 630.3125 318.59375 C 630.3125 318.59375 630.87947 322.875 630.34375 325.375 C 629.80804 327.875 625 329.5625 625 329.5625 C 625 329.5625 625.19757 331.04815 627.6875 331.96875 C 630.60963 333.04914 631.98661 331.95536 633.59375 329.8125 C 635.20089 327.66964 634.34726 322.04771 634.25 318.65625 C 634.12373 314.25323 630.52307 311.23989 629.8125 310.8125 C 629.10193 310.38511 616.59375 306.875 616.59375 306.875 z "
         inkscape:radius="0.65895635"
         sodipodi:type="inkscape:offset"
         transform="translate(14.464286,-4.6428572)" />
      <path
         style="fill:#000000;fill-opacity:1;stroke:#ffffff;stroke-width:2;stroke-linecap:butt;stroke-linejoin:miter;stroke-miterlimit:4;stroke-opacity:1;stroke-dasharray:none"
         d="m 609.21459,268.07822 c 6.33874,17.76004 10.27989,57.84576 18.82026,62.52687 8.54037,4.68111 9.77645,-7.96661 7.18407,-14.08316 -2.59241,-6.11655 -20.59434,-51.09995 -20.59434,-51.09995 z"
         id="path4427"
         inkscape:connector-curvature="0"
         sodipodi:nodetypes="czscc" />
      <path
         sodipodi:nodetypes="czscc"
         inkscape:connector-curvature="0"
         id="path4429"
         d="m 606.2764,276.34048 c 4.22339,18.37829 3.46084,58.65006 11.39674,64.29562 7.9359,5.64554 10.63915,-6.77161 8.77809,-13.14883 -1.86109,-6.37723 -14.49188,-53.15372 -14.49188,-53.15372 z"
         style="fill:#000000;fill-opacity:1;stroke:#ffffff;stroke-width:2;stroke-linecap:butt;stroke-linejoin:miter;stroke-miterlimit:4;stroke-opacity:1;stroke-dasharray:none" />
      <path
         style="fill:#000000;fill-opacity:1;stroke:#ffffff;stroke-width:2;stroke-linecap:butt;stroke-linejoin:miter;stroke-miterlimit:4;stroke-opacity:1;stroke-dasharray:none"
         d="m 605.90355,281.94136 c 0.9774,18.83197 -6.74672,58.36342 0.0918,65.29781 6.8385,6.93438 11.65096,-4.82715 10.92222,-11.43028 -0.72875,-6.60317 -5.06939,-54.86014 -5.06939,-54.86014 z"
         id="path4431"
         inkscape:connector-curvature="0"
         sodipodi:nodetypes="czscc" />
      <path
         sodipodi:nodetypes="czscc"
         inkscape:connector-curvature="0"
         id="path4433"
         d="m 609.45592,292.79651 c -4.11457,18.40296 -22.16864,54.40918 -17.44298,62.92499 4.72565,8.51581 12.51919,-1.52182 13.59005,-8.07817 1.07084,-6.55638 9.84578,-54.20695 9.84578,-54.20695 z"
         style="fill:#000000;fill-opacity:1;stroke:#ffffff;stroke-width:2;stroke-linecap:butt;stroke-linejoin:miter;stroke-miterlimit:4;stroke-opacity:1;stroke-dasharray:none" />
      <path
         style="fill:#000000;fill-opacity:1;stroke:#ffffff;stroke-width:2;stroke-linecap:butt;stroke-linejoin:miter;stroke-miterlimit:4;stroke-opacity:1;stroke-dasharray:none"
         d="m 606.4568,302.71058 c -7.7787,17.1782 -32.79185,48.74938 -29.90087,58.04955 2.89097,9.30016 12.56659,1.06149 14.95115,-5.13902 2.38454,-6.20054 20.6864,-51.06276 20.6864,-51.06276 z"
         id="path4435"
         inkscape:connector-curvature="0"
         sodipodi:nodetypes="czscc" />
      <path
         sodipodi:nodetypes="czscc"
         inkscape:connector-curvature="0"
         id="path4437"
         d="m 597.42373,307.56684 c -9.55002,16.26026 -37.75863,45.01214 -35.86638,54.56569 1.89224,9.55355 12.38411,2.3832 15.4104,-3.53069 3.02627,-5.91391 25.96534,-48.59149 25.96534,-48.59149 z"
         style="fill:#000000;fill-opacity:1;stroke:#ffffff;stroke-width:2;stroke-linecap:butt;stroke-linejoin:miter;stroke-miterlimit:4;stroke-opacity:1;stroke-dasharray:none" />
      <path
         style="fill:#000000;fill-opacity:1;stroke:#ffffff;stroke-width:2;stroke-linecap:butt;stroke-linejoin:miter;stroke-miterlimit:4;stroke-opacity:1;stroke-dasharray:none"
         d="m 585.63594,287.17163 c -15.82817,10.25029 -53.93548,23.29746 -56.5288,32.68498 -2.59332,9.38752 10,7.68414 15.35715,3.75557 5.35714,-3.92857 45,-31.78571 45,-31.78571 z"
         id="path4439"
         inkscape:connector-curvature="0"
         sodipodi:nodetypes="czscc" />
      <text
         sodipodi:linespacing="125%"
         id="text4441"
         y="292.44907"
         x="523.96417"
         style="font-size:61.77799988px;font-style:normal;font-variant:normal;font-weight:normal;font-stretch:normal;line-height:125%;letter-spacing:0px;word-spacing:0px;fill:#ffffff;fill-opacity:1;stroke:none;font-family:Alegreya Sans SC;-inkscape-font-specification:Alegreya Sans SC"
         xml:space="preserve"><tspan
           y="292.44907"
           x="523.96417"
           id="tspan4443"
           sodipodi:role="line"
           style="font-weight:bold;fill:#ffffff;-inkscape-font-specification:Alegreya Sans SC Bold">D</tspan></text>
      <path
         sodipodi:nodetypes="czscc"
         inkscape:connector-curvature="0"
         id="path4445"
         d="m 582.80277,294.45503 c -15.30166,11.02083 -52.7168,25.93737 -54.8425,35.4417 -2.1257,9.50432 10.36792,7.17998 15.52415,2.99118 5.15621,-4.1888 43.3723,-33.97314 43.3723,-33.97314 z"
         style="fill:#000000;fill-opacity:1;stroke:#ffffff;stroke-width:2;stroke-linecap:butt;stroke-linejoin:miter;stroke-miterlimit:4;stroke-opacity:1;stroke-dasharray:none" />
      <path
         sodipodi:nodetypes="czscc"
         inkscape:connector-curvature="0"
         id="path4447"
         d="m 613.39853,270.76956 c -15.42571,10.84653 -53.00766,25.33764 -55.24105,34.81724 -2.23339,9.4796 10.2858,7.29714 15.48921,3.1671 5.20341,-4.13003 43.75494,-33.4789 43.75494,-33.4789 z"
         style="fill:#000000;fill-opacity:1;stroke:#ffffff;stroke-width:2;stroke-linecap:butt;stroke-linejoin:miter;stroke-miterlimit:4;stroke-opacity:1;stroke-dasharray:none" />
      <path
         style="fill:#000000;fill-opacity:1;stroke:#ffffff;stroke-width:2;stroke-linecap:butt;stroke-linejoin:miter;stroke-miterlimit:4;stroke-opacity:1;stroke-dasharray:none"
         d="m 580.59333,301.67701 c -14.3245,12.2641 -50.35835,30.26293 -51.68027,39.91194 -1.32193,9.649 10.93302,6.28608 15.72017,1.68001 4.78714,-4.60607 40.37345,-37.48754 40.37345,-37.48754 z"
         id="path4449"
         inkscape:connector-curvature="0"
         sodipodi:nodetypes="czscc" />
      <path
         style="fill:#000000;fill-opacity:1;stroke:#ffffff;stroke-width:2;stroke-linecap:butt;stroke-linejoin:miter;stroke-miterlimit:4;stroke-opacity:1;stroke-dasharray:none"
         d="m 608.85284,282.63885 c -15.42571,10.84653 -53.00766,25.33764 -55.24105,34.81724 -2.23339,9.4796 10.2858,7.29714 15.48921,3.1671 5.20341,-4.13003 43.75494,-33.4789 43.75494,-33.4789 z"
         id="path4451"
         inkscape:connector-curvature="0"
         sodipodi:nodetypes="czscc" />
      <path
         sodipodi:nodetypes="czscc"
         inkscape:connector-curvature="0"
         id="path4453"
         d="m 583.53776,305.12455 c -13.19757,13.46935 -47.52006,34.54926 -47.99343,44.27689 -0.47338,9.72763 11.44068,5.30628 15.80685,0.29937 4.36616,-5.00692 36.94183,-40.87337 36.94183,-40.87337 z"
         style="fill:#000000;fill-opacity:1;stroke:#ffffff;stroke-width:2;stroke-linecap:butt;stroke-linejoin:miter;stroke-miterlimit:4;stroke-opacity:1;stroke-dasharray:none" />
      <path
         style="fill:#000000;fill-opacity:1;stroke:#ffffff;stroke-width:2;stroke-linecap:butt;stroke-linejoin:miter;stroke-miterlimit:4;stroke-opacity:1;stroke-dasharray:none"
         d="m 589.01428,309.10138 c -11.65079,14.82762 -43.4711,39.52304 -42.88135,49.24431 0.58974,9.72127 11.9509,4.02764 15.74531,-1.42534 3.79439,-5.453 32.26657,-44.65646 32.26657,-44.65646 z"
         id="path4455"
         inkscape:connector-curvature="0"
         sodipodi:nodetypes="czscc" />
      <path
         sodipodi:nodetypes="czscc"
         inkscape:connector-curvature="0"
         id="path4457"
         d="m 607.41149,288.51371 c -14.40075,12.17449 -50.54618,29.94816 -51.92828,39.58873 -1.38211,9.64057 10.8936,6.35417 15.70938,1.77805 4.81579,-4.57611 40.60656,-37.23492 40.60656,-37.23492 z"
         style="fill:#000000;fill-opacity:1;stroke:#ffffff;stroke-width:2;stroke-linecap:butt;stroke-linejoin:miter;stroke-miterlimit:4;stroke-opacity:1;stroke-dasharray:none" />
      <path
         style="fill:#000000;fill-opacity:1;stroke:#ffffff;stroke-width:2;stroke-linecap:butt;stroke-linejoin:miter;stroke-miterlimit:4;stroke-opacity:1;stroke-dasharray:none"
         d="m 612.66908,292.04493 c -13.56755,13.09663 -48.46373,33.21259 -49.20781,42.92326 -0.74408,9.71067 11.28849,5.62281 15.79239,0.73942 4.5039,-4.88339 38.06571,-39.8288 38.06571,-39.8288 z"
         id="path4459"
         inkscape:connector-curvature="0"
         sodipodi:nodetypes="czscc" />
      <path
         sodipodi:nodetypes="czscc"
         inkscape:connector-curvature="0"
         id="path4461"
         d="m 614.51378,282.28069 c -10.45743,15.69211 -40.25226,42.79677 -38.90525,52.44231 1.34701,9.64554 12.22891,3.08218 15.58594,-2.65044 3.35702,-5.73263 28.68112,-47.03961 28.68112,-47.03961 z"
         style="fill:#000000;fill-opacity:1;stroke:#ffffff;stroke-width:2;stroke-linecap:butt;stroke-linejoin:miter;stroke-miterlimit:4;stroke-opacity:1;stroke-dasharray:none" />
      <path
         style="fill:#000000;fill-opacity:1;stroke:#ffffff;stroke-width:2;stroke-linecap:butt;stroke-linejoin:miter;stroke-miterlimit:4;stroke-opacity:1;stroke-dasharray:none"
         d="m 619.31892,269.96446 c -7.9596,17.09517 -33.30456,48.40057 -30.51192,57.73074 2.79265,9.33015 12.55469,1.19407 15.00455,-4.98093 2.44987,-6.17502 21.22423,-50.84157 21.22423,-50.84157 z"
         id="path4463"
         inkscape:connector-curvature="0"
         sodipodi:nodetypes="czscc" />
      <path
         style="fill:#000000;fill-opacity:1;stroke:#ffffff;stroke-width:2;stroke-linecap:butt;stroke-linejoin:miter;stroke-miterlimit:4;stroke-opacity:1;stroke-dasharray:none"
         d="m 604.15625,166.4375 c -3.60194,-0.009 -6.74147,0.39612 -8.15625,1.40625 -2.34338,1.67314 0.5,5.0625 0.5,5.0625 0,0 -4.08334,-0.85937 -6.0625,0 -4.79823,2.08344 -7.32852,7.0633 -8.84375,10.09375 -1.51523,3.03046 -2.28125,7.8125 -2.28125,7.8125 0,0 -44.80964,-4.58201 -63.75,0.46875 -18.94036,5.05077 -17.04341,8.45462 -16.625,9.4375 0.41841,0.98288 3.85469,2.46622 5.875,2.71875 2.0203,0.25254 -6.41965,1.41806 -6.0625,5.375 0.10816,1.19842 2.78965,3.21875 5.0625,3.21875 2.27284,0 -3.18321,3.24452 -0.5,5.34375 2.68322,2.09922 7.5625,1.28125 7.5625,1.28125 0,0 -1.07203,3.75246 1.28125,5.25 1.38896,0.88389 7.15625,0.0937 7.15625,0.0937 0,0 -1.23556,2.5315 1.4375,4.4375 3.63024,2.58852 9,2.40625 9,2.40625 0,0 -0.21672,2.71878 4.71875,3.21875 4.93547,0.49997 11.53125,5 11.53125,5 l 23.71875,14.125 c 0,0 5.21904,4.85154 6.78125,10.125 1.5622,5.27346 5.89315,6.72041 6.71875,12.78125 0.95685,7.02443 5.84375,8.3125 5.84375,8.3125 -0.29462,1.9777 -1.35427,1.40443 -4.03125,5.09375 -2.67698,3.68932 -10.20684,13.69609 -11.53125,17.375 -3.26061,9.05728 -4.02887,21.9586 5.0625,22.96875 9.09138,1.01016 24.45547,-8.22873 37.375,-15.40625 18.18275,-10.10152 20.95003,-10.58773 29.03125,-17.40625 33.58314,-37.64522 20.27106,-49.77848 31.59375,-52.40625 3.53554,0 12.125,7.0625 12.125,7.0625 0,0 -2.69266,-10.1812 -4.9375,-12.5 -2.24483,-2.3188 -2.05046,-8.32922 -4.07077,-12.11729 -2.02031,-3.78807 -6.93032,-6.30248 -11.60136,-6.1282 -9.64022,0.35969 -9.22913,1.58849 -13.9203,4.93811 -2.64005,1.88506 -4.38901,3.31579 -4.38901,3.31579 0,0 -4.25324,-11.51428 -4.26856,-17.16466 -0.007,-2.53797 -1.60589,-15.10778 -4.8125,-20.1875 -3.26713,-5.17558 -22.70909,-24.41264 -34.8125,-25.25 -1.2548,-0.0868 -0.5181,-0.15313 -1.71875,-0.15625 z"
         id="path4465"
         inkscape:connector-curvature="0"
         sodipodi:nodetypes="sscsscsssssscscscsccssczssscccsssscssss" />
      <path
         sodipodi:nodetypes="zsszszz"
         inkscape:connector-curvature="0"
         id="path4467"
         d="m 622.09679,200.04196 c -0.2202,-1.42866 0.6416,-1.546 8.17312,-2.71333 7.5315,-1.16733 9.41511,-1.38359 10.56845,-0.21889 0.74624,0.75358 2.04396,5.9021 1.56758,7.69303 -0.47638,1.79093 -5.73578,-0.38473 -9.45548,0.20636 -2.13564,0.33937 -6.2614,1.71752 -6.93587,0.76481 -0.67449,-0.95272 -3.69759,-4.30334 -3.9178,-5.73198 z"
         style="fill:#ffffff;stroke:#000000;stroke-width:1.2110101px;stroke-linecap:butt;stroke-linejoin:miter;stroke-opacity:1" />
      <path
         sodipodi:nodetypes="csc"
         inkscape:connector-curvature="0"
         id="path4469"
         d="m 599.32143,190.59632 c 0,0 17.67857,3.03572 23.75,9.82143 6.07143,6.78572 22.67857,36.42858 22.67857,36.42858"
         style="fill:none;stroke:#000000;stroke-width:2;stroke-linecap:butt;stroke-linejoin:miter;stroke-miterlimit:4;stroke-opacity:1;stroke-dasharray:none" />
      <path
         style="fill:#ffffff;fill-opacity:1;stroke:#ffffff;stroke-width:1;stroke-linecap:butt;stroke-linejoin:miter;stroke-miterlimit:4;stroke-opacity:1;stroke-dasharray:none"
         d="m 515.28125,197.9375 c -28.3028,-0.11865 23.42483,2.39367 58.375,3 6.05391,0.0994 10.65005,0.15209 14.59375,0.1875 l -1.5,-1.375 c -6.63694,-0.35399 -12.90625,-0.625 -12.90625,-0.625 -30.80689,-0.79067 -49.12823,-1.14795 -58.5625,-1.1875 z"
         id="path4471"
         inkscape:connector-curvature="0" />
      <path
         style="fill:#ffffff;fill-opacity:1;stroke:#ffffff;stroke-width:1;stroke-linecap:butt;stroke-linejoin:miter;stroke-miterlimit:4;stroke-opacity:1;stroke-dasharray:none"
         d="m 593.0625,205.5625 c -7.32717,0.0581 -14.875,0.1875 -14.875,0.1875 -123.18269,4.58945 -46.62139,3.96613 -0.0625,1.84375 6.90288,-0.32113 12.06626,-0.5802 16.25,-0.8125 l -1.3125,-1.21875 z"
         id="path4473"
         inkscape:connector-curvature="0" />
      <path
         style="fill:#ffffff;fill-opacity:1;stroke:#ffffff;stroke-width:1;stroke-linecap:butt;stroke-linejoin:miter;stroke-miterlimit:4;stroke-opacity:1;stroke-dasharray:none"
         d="m 593.71875,206.15625 c -1.68494,0.33107 -4.5625,0.90625 -4.5625,0.90625 -120.41507,26.36758 -45.19405,12.16013 0.25,1.8125 2.20123,-0.50338 3.91204,-0.90469 5.8125,-1.34375 l -1.5,-1.375 z"
         id="path4475"
         inkscape:connector-curvature="0" />
      <path
         style="fill:#ffffff;fill-opacity:1;stroke:#ffffff;stroke-width:1;stroke-linecap:butt;stroke-linejoin:miter;stroke-miterlimit:4;stroke-opacity:1;stroke-dasharray:none"
         d="m 597.40625,209.5625 c -109.34601,37.29225 -42.1019,16.58416 1.5625,1.40625 l -1.5625,-1.40625 z"
         id="path4477"
         inkscape:connector-curvature="0" />
      <path
         style="fill:#ffffff;fill-opacity:1;stroke:#ffffff;stroke-width:1;stroke-linecap:butt;stroke-linejoin:miter;stroke-miterlimit:4;stroke-opacity:1;stroke-dasharray:none"
         d="m 599.8125,211.78125 c -92.00644,43.85112 -39.08441,20.72205 1.5,1.34375 l -1.5,-1.34375 z"
         id="path4479"
         inkscape:connector-curvature="0" />
      <path
         style="fill:#ffffff;fill-opacity:1;stroke:#ffffff;stroke-width:1;stroke-linecap:butt;stroke-linejoin:miter;stroke-miterlimit:4;stroke-opacity:1;stroke-dasharray:none"
         d="m 599.9375,211.875 c -66.21228,53.34329 -31.30437,27.34559 1.40625,1.28125 L 599.9375,211.875 z"
         id="path4481"
         inkscape:connector-curvature="0" />
      <path
         style="fill:#ffffff;fill-opacity:1;stroke:#ffffff;stroke-width:1;stroke-linecap:butt;stroke-linejoin:miter;stroke-miterlimit:4;stroke-opacity:1;stroke-dasharray:none"
         d="m 606.96875,218.3125 c -67.42157,51.41701 -31.98117,26.40216 1.375,1.25 l -1.375,-1.25 z"
         id="path4483"
         inkscape:connector-curvature="0" />
      <path
         style="fill:#ffffff;fill-opacity:1;stroke:#ffffff;stroke-width:1;stroke-linecap:butt;stroke-linejoin:miter;stroke-miterlimit:4;stroke-opacity:1;stroke-dasharray:none"
         d="m 613.84375,224.625 c -67.239,51.27945 -31.93714,26.39655 1.375,1.28125 l -1.375,-1.28125 z"
         id="path4485"
         inkscape:connector-curvature="0" />
      <path
         style="fill:#ffffff;fill-opacity:1;stroke:#ffffff;stroke-width:1;stroke-linecap:butt;stroke-linejoin:miter;stroke-miterlimit:4;stroke-opacity:1;stroke-dasharray:none"
         d="m 620.625,230.875 c -65.88813,50.2623 -31.61989,26.10207 1.375,1.25 l -1.375,-1.25 z"
         id="path4487"
         inkscape:connector-curvature="0" />
      <path
         style="fill:#ffffff;fill-opacity:1;stroke:#ffffff;stroke-width:1;stroke-linecap:butt;stroke-linejoin:miter;stroke-miterlimit:4;stroke-opacity:1;stroke-dasharray:none"
         d="m 628.75,238.34375 c -70.55389,53.77508 -32.63084,26.97464 1.40625,1.25 l -1.40625,-1.25 z"
         id="path4489"
         inkscape:connector-curvature="0" />
      <path
         style="fill:none;stroke:#000000;stroke-width:2;stroke-linecap:butt;stroke-linejoin:miter;stroke-miterlimit:4;stroke-opacity:1;stroke-dasharray:none"
         d="m 602.90625,168.46875 c -1.76687,0.0602 -8.03623,-0.0767 -4.90625,3.09375 5.93107,5.42349 0.88452,3.88365 -3.90625,3.03125 -7.0082,-0.4493 -10.56788,8.06545 -12.25,13.875 1.24482,4.09574 9.46767,5.00238 13.13577,7.98788 12.3675,5.90823 24.4417,13.04636 36.98923,18.19962 3.03246,-1.22353 11.45185,2.31659 11.5625,-1.46875 -0.59549,-9.69013 -2.1508,-20.62589 -10.34375,-26.90625 -8.4405,-7.61935 -18.04353,-17.64695 -30.28125,-17.8125 z"
         id="path4491"
         inkscape:connector-curvature="0" />
      <path
         style="fill:#000000;fill-opacity:1;stroke:#ffffff;stroke-width:2;stroke-linecap:butt;stroke-linejoin:miter;stroke-miterlimit:4;stroke-opacity:1;stroke-dasharray:none"
         d="m 572.71467,199.59469 c 0,0 35.01836,0.57755 41.71061,5.75458 4.66955,3.6123 23.35978,34.724 23.35978,34.724 0,0 4.05247,6.39586 -1.24025,7.25886 -3.15945,0.51516 -10.60529,-1.4871 -17.19503,-6.50125 -6.58974,-5.01415 -16.79379,-24.87501 -16.79379,-24.87501 l -13.0917,2.77149 z"
         id="path4493"
         inkscape:connector-curvature="0"
         sodipodi:nodetypes="cscszccc" />
      <path
         transform="matrix(0.16035114,0,0,0.16035114,675.10297,473.29814)"
         d="m -279.99999,-1479.4235 a 26.785713,26.785713 0 1 1 -53.57143,0 26.785713,26.785713 0 1 1 53.57143,0 z"
         sodipodi:ry="26.785713"
         sodipodi:rx="26.785713"
         sodipodi:cy="-1479.4235"
         sodipodi:cx="-306.78571"
         id="path4495"
         style="fill:#000000;fill-opacity:1;stroke:#ffffff;stroke-width:12.47262764;stroke-linecap:round;stroke-linejoin:miter;stroke-miterlimit:4.19999981;stroke-opacity:1;stroke-dasharray:none;stroke-dashoffset:0"
         sodipodi:type="arc" />
      <path
         sodipodi:type="arc"
         style="fill:#000000;fill-opacity:1;stroke:#ffffff;stroke-width:12.47262764;stroke-linecap:round;stroke-linejoin:miter;stroke-miterlimit:4.19999981;stroke-opacity:1;stroke-dasharray:none;stroke-dashoffset:0"
         id="path4497"
         sodipodi:cx="-306.78571"
         sodipodi:cy="-1479.4235"
         sodipodi:rx="26.785713"
         sodipodi:ry="26.785713"
         d="m -279.99999,-1479.4235 a 26.785713,26.785713 0 1 1 -53.57143,0 26.785713,26.785713 0 1 1 53.57143,0 z"
         transform="matrix(0.16035114,0,0,0.16035114,642.31218,447.37465)" />
      <rect
         style="fill:#000000;fill-opacity:1;stroke:#ffffff;stroke-width:2;stroke-linecap:round;stroke-linejoin:miter;stroke-miterlimit:4.19999981;stroke-opacity:1;stroke-dasharray:none;stroke-dashoffset:0"
         id="rect4499"
         width="16.970348"
         height="7.8117471"
         x="498.1651"
         y="-415.71011"
         rx="4.5732298"
         ry="4.9134421"
         transform="matrix(0.51818206,0.85527034,-0.85527034,0.51818206,0,0)" />
      <path
         sodipodi:type="arc"
         style="fill:#ffffff;fill-opacity:1;stroke:#ffffff;stroke-width:12.47262764;stroke-linecap:round;stroke-linejoin:miter;stroke-miterlimit:4.19999981;stroke-opacity:1;stroke-dasharray:none;stroke-dashoffset:0"
         id="path4501"
         sodipodi:cx="-306.78571"
         sodipodi:cy="-1479.4235"
         sodipodi:rx="26.785713"
         sodipodi:ry="26.785713"
         d="m -279.99999,-1479.4235 a 26.785713,26.785713 0 1 1 -53.57143,0 26.785713,26.785713 0 1 1 53.57143,0 z"
         transform="matrix(0.05677851,0.04803103,-0.0356573,0.04215126,632.23653,309.82922)" />
      <path
         style="fill:none;stroke:#ffffff;stroke-width:2;stroke-linecap:butt;stroke-linejoin:miter;stroke-miterlimit:4;stroke-opacity:1;stroke-dasharray:none"
         d="m 578.03572,190.39789 c 0,0 36.96428,3.92858 43.03571,10.71429 6.07143,6.78572 22.67857,36.42858 22.67857,36.42858"
         id="path4503"
         inkscape:connector-curvature="0"
         sodipodi:nodetypes="csc" />
      <path
         transform="translate(1.964286,-3.2142858)"
         sodipodi:type="inkscape:offset"
         inkscape:radius="0.65895635"
         inkscape:original="M 616.59375 306.875 L 609.46875 309.90625 C 609.46875 309.90625 616.30227 310.75996 619.8125 312.21875 C 623.32273 313.67754 628.07907 316.6321 624.90625 320.46875 C 622.56017 323.30569 622.5 325.4375 622.5 325.4375 C 622.5 325.4375 623.03125 325.8125 625.53125 324.5625 C 628.03125 323.3125 630.3125 318.59375 630.3125 318.59375 C 630.3125 318.59375 630.87947 322.875 630.34375 325.375 C 629.80804 327.875 625 329.5625 625 329.5625 C 625 329.5625 625.19757 331.04815 627.6875 331.96875 C 630.60963 333.04914 631.98661 331.95536 633.59375 329.8125 C 635.20089 327.66964 634.34726 322.04771 634.25 318.65625 C 634.12373 314.25323 630.52307 311.23989 629.8125 310.8125 C 629.10193 310.38511 616.59375 306.875 616.59375 306.875 z "
         style="fill:#000000;fill-opacity:1;stroke:#ffffff;stroke-width:2;stroke-linecap:butt;stroke-linejoin:miter;stroke-miterlimit:4;stroke-opacity:1;stroke-dasharray:none"
         id="path4505"
         d="m 616.4375,306.21875 a 0.65902224,0.65902224 0 0 0 -0.0937,0.0625 l -7.125,3.03125 a 0.65902224,0.65902224 0 0 0 0.15625,1.25 c 0,0 6.873,0.87255 10.1875,2.25 1.70693,0.70937 3.70935,1.80766 4.8125,3.0625 0.55158,0.62742 0.86373,1.28356 0.90625,1.9375 0.0425,0.65394 -0.15979,1.38516 -0.875,2.25 -1.22294,1.47881 -1.8858,2.79147 -2.21875,3.75 -0.33295,0.95853 -0.34375,1.59375 -0.34375,1.59375 a 0.65902224,0.65902224 0 0 0 0.28125,0.5625 c 0,0 0.0913,0.0676 0.15625,0.0937 0.0649,0.0261 0.13276,0.0474 0.21875,0.0625 0.17198,0.0302 0.37976,0.0388 0.65625,0 0.55299,-0.0776 1.36598,-0.32361 2.65625,-0.96875 1.47495,-0.73747 2.68453,-2.31161 3.59375,-3.6875 0.26348,-0.39871 0.23453,-0.40381 0.4375,-0.75 0.0995,1.44791 0.12573,3.21538 -0.15625,4.53125 -0.18959,0.88477 -1.32372,1.89493 -2.53125,2.59375 -1.20753,0.69882 -2.375,1.09375 -2.375,1.09375 a 0.65902224,0.65902224 0 0 0 -0.4375,0.71875 c 0,0 0.0922,0.56399 0.53125,1.15625 0.43904,0.59226 1.24596,1.28293 2.59375,1.78125 1.56048,0.57695 2.85208,0.5781 3.9375,0.0937 1.08542,-0.48435 1.89327,-1.36811 2.71875,-2.46875 1.00314,-1.33752 1.11894,-3.38974 1.09375,-5.53125 -0.0252,-2.14151 -0.26515,-4.41156 -0.3125,-6.0625 -0.0682,-2.37661 -1.06537,-4.35001 -2.125,-5.78125 -1.05963,-1.43124 -2.10483,-2.28088 -2.625,-2.59375 -0.14199,-0.0854 -0.23145,-0.1022 -0.375,-0.15625 -0.14355,-0.0541 -0.32148,-0.11747 -0.53125,-0.1875 -0.41953,-0.14006 -0.98574,-0.33575 -1.625,-0.53125 -1.27851,-0.39099 -2.89039,-0.84654 -4.5,-1.3125 -3.21922,-0.93192 -6.34375,-1.8125 -6.34375,-1.8125 a 0.65902224,0.65902224 0 0 0 -0.34375,-0.0313 z" />
      <path
         style="fill:none;stroke:#ffffff;stroke-width:2;stroke-linecap:butt;stroke-linejoin:miter;stroke-miterlimit:4;stroke-opacity:1;stroke-dasharray:none"
         d="m 678.14017,244.61786 c 0.43979,-0.17524 0.14365,-2.24925 -2.27229,-5.25626 -0.31444,-0.39137 8.27329,2.42972 8.54768,1.21805"
         id="path4507"
         inkscape:connector-curvature="0"
         sodipodi:nodetypes="csc" />
      <path
         sodipodi:type="arc"
         style="fill:#ffffff;fill-opacity:1;stroke:none"
         id="path4509"
         sodipodi:cx="-306.78571"
         sodipodi:cy="-1479.4235"
         sodipodi:rx="26.785713"
         sodipodi:ry="26.785713"
         d="m -279.99999,-1479.4235 a 26.785713,26.785713 0 1 1 -53.57143,0 26.785713,26.785713 0 1 1 53.57143,0 z"
         transform="matrix(0.06035114,0,0,0.06035114,627.46011,298.03436)" />
      <path
         transform="matrix(0.06035114,0,0,0.06035114,623.46011,301.27674)"
         d="m -279.99999,-1479.4235 a 26.785713,26.785713 0 1 1 -53.57143,0 26.785713,26.785713 0 1 1 53.57143,0 z"
         sodipodi:ry="26.785713"
         sodipodi:rx="26.785713"
         sodipodi:cy="-1479.4235"
         sodipodi:cx="-306.78571"
         id="path4511"
         style="fill:#ffffff;fill-opacity:1;stroke:none"
         sodipodi:type="arc" />
    </g>
  </g>
</svg>
