<?xml version="1.0" encoding="UTF-8" standalone="no"?>
<!-- Created with Inkscape (http://www.inkscape.org/) -->

<svg
   xmlns:dc="http://purl.org/dc/elements/1.1/"
   xmlns:cc="http://creativecommons.org/ns#"
   xmlns:rdf="http://www.w3.org/1999/02/22-rdf-syntax-ns#"
   xmlns:svg="http://www.w3.org/2000/svg"
   xmlns="http://www.w3.org/2000/svg"
   xmlns:sodipodi="http://sodipodi.sourceforge.net/DTD/sodipodi-0.dtd"
   xmlns:inkscape="http://www.inkscape.org/namespaces/inkscape"
   width="133"
   height="133"
   id="svg26513"
   version="1.1"
   inkscape:version="0.48.4 r9939"
   sodipodi:docname="mobile-robot.svg">
  <defs
     id="defs26515" />
  <sodipodi:namedview
     id="base"
     pagecolor="#ffffff"
     bordercolor="#666666"
     borderopacity="1.0"
     inkscape:pageopacity="0.0"
     inkscape:pageshadow="2"
     inkscape:zoom="2.8284271"
     inkscape:cx="86.856792"
     inkscape:cy="65.441548"
     inkscape:document-units="px"
     inkscape:current-layer="layer1"
     showgrid="false"
     inkscape:window-width="1024"
     inkscape:window-height="720"
     inkscape:window-x="0"
     inkscape:window-y="0"
     inkscape:window-maximized="1" />
  <metadata
     id="metadata26518">
    <rdf:RDF>
      <cc:Work
         rdf:about="">
        <dc:format>image/svg+xml</dc:format>
        <dc:type
           rdf:resource="http://purl.org/dc/dcmitype/StillImage" />
        <dc:title />
      </cc:Work>
    </rdf:RDF>
  </metadata>
  <g
     inkscape:label="Layer 1"
     inkscape:groupmode="layer"
     id="layer1"
     transform="translate(0,-919.36217)">
    <path
       id="rect154479-8"
       d="m 90.88871,919.36526 c 3.4767,-0.0753 6.96519,1.22537 9.69978,3.8963 l 27.28053,26.65634 c 0.8594,0.83947 1.5924,1.77413 2.19185,2.75592 -2.35063,-1.97863 -5.35085,-3.20675 -8.62728,-3.18349 -7.36899,0.0525 -13.21437,6.17677 -13.10409,13.68458 l 0.0934,6.17707 -26.6743,-26.03871 c -5.46903,-5.34185 -5.66243,-14.05148 -0.41978,-19.62414 2.62133,-2.78618 6.0831,-4.24906 9.55987,-4.32387 z m 0.55961,2.23317 c -6.45296,0 -11.70501,5.35143 -11.70501,11.92656 0,6.57514 5.25205,11.97401 11.70501,11.97401 6.45288,0 11.70493,-5.39887 11.70493,-11.97401 0,-6.57513 -5.25205,-11.92656 -11.70493,-11.92656 z m 0,2.28076 c 5.25205,0 9.46653,4.29422 9.46653,9.6458 0,5.35159 -4.21433,9.69325 -9.46653,9.69325 -5.25213,0 -9.46661,-4.34166 -9.46661,-9.69325 0,-5.35158 4.21463,-9.6458 9.46661,-9.6458 z m -13.5238,0.57019 c -4.11374,6.38918 -3.37044,15.04863 2.23841,20.52687 l 11.84499,11.59388 -21.91783,21.42974 c -6.51018,6.35877 -16.74956,6.11077 -22.99024,-0.52275 -6.24069,-6.63337 -5.9973,-17.01905 0.51304,-23.37782 l 30.31163,-29.64992 z m 43.55578,27.32172 c 6.17637,-0.0441 11.19264,4.96856 11.28516,11.26119 l 0.23324,13.8272 c 0.059,3.98738 -1.89444,7.47239 -4.89659,9.50318 l 0,-7.12739 c 0,-2.08477 -1.68463,-3.80127 -3.73068,-3.80127 l -4.89645,0 c -2.04605,0 -3.77724,1.7165 -3.77724,3.80127 l 0,7.12739 c -2.94947,-2.00586 -4.8857,-5.40283 -4.9433,-9.31312 l -0.23309,-13.87464 c -0.0927,-6.29278 4.78258,-11.35987 10.95895,-11.40381 z m -62.95532,0.99775 c -7.17454,0 -13.01067,5.94671 -13.01067,13.25702 0,7.3103 5.83627,13.25685 13.01067,13.25685 7.17455,0 13.01083,-5.94655 13.01083,-13.25685 0,-7.31031 -5.83613,-13.25702 -13.01083,-13.25702 z m 63.18841,1.18798 c -5.09014,0 -9.27999,4.22169 -9.28014,9.40815 0,5.18645 4.19,9.45558 9.28014,9.45558 5.09014,0 9.23344,-4.26913 9.23344,-9.45558 0,-5.18646 -4.1433,-9.40815 -9.23344,-9.40815 z m -63.18841,1.09279 c 5.97372,0 10.77242,4.8895 10.77242,10.97625 0,6.08674 -4.79855,11.02368 -10.77242,11.02368 -5.97371,0 -10.81882,-4.93694 -10.81897,-11.02368 0,-6.08675 4.84526,-10.97625 10.81897,-10.97625 z m 63.18841,1.18797 c 3.88916,0 6.99503,3.16464 6.99503,7.12739 0,3.96274 -3.10587,7.17482 -6.99503,7.17482 -3.88916,0 -7.04173,-3.21208 -7.04173,-7.17482 0,-3.96275 3.15257,-7.12739 7.04173,-7.12739 z m -80.9557,13.68458 c 0.68809,3.31684 2.28019,6.49075 4.75662,9.12305 7.06591,7.51055 18.69713,7.7698 26.06806,0.57019 l 4.75676,-4.60912 c 0.077,0.40233 0.13983,0.80511 0.13983,1.23542 l 0,22.66515 c 0,3.75744 -2.98081,6.74724 -6.66852,6.74724 l -26.67437,0 c -3.68785,0 -6.66866,-2.9898 -6.66866,-6.74724 l 0,-22.66515 c 0,-2.90174 1.78177,-5.35341 4.29028,-6.31954 z m 83.61374,7.74501 c 0.85358,0 1.49242,0.69852 1.49227,1.5681 l 0,27.65422 c 0,0.8696 -0.63869,1.5205 -1.49227,1.5205 l -4.89645,0 c -0.85358,0 -1.53898,-0.6509 -1.53883,-1.5205 l 0,-27.65422 c 0,-0.86958 0.68525,-1.5681 1.53883,-1.5681 l 4.89645,0 z m -17.62732,31.07542 c 1.72462,0 3.12437,1.4262 3.12437,3.1836 l 0,10.596 c 0,1.7574 -1.39975,3.1836 -3.12437,3.1836 l -102.54709,0 c -1.72477,0 -3.07782,-1.4262 -3.07782,-3.1836 l 0,-10.596 c 0,-1.7574 1.35305,-3.1836 3.07782,-3.1836 l 102.54709,0 z m -8.67398,19.6241 c 6.5257,0 11.75164,5.3723 11.75164,12.0215 0,6.6491 -5.22594,11.974 -11.75164,11.974 l -86.27178,0 C 5.2725,1052.3622 0,1047.0373 0,1040.3882 c 0,-6.6492 5.2725,-12.0215 11.79835,-12.0215 l 86.27178,0 z m -0.69943,4.7516 c -3.95184,0 -7.18149,3.2908 -7.18149,7.3175 0,4.0266 3.2204,7.3174 7.18149,7.3174 3.96094,0 7.18156,-3.2816 7.18156,-7.3174 0,-4.0361 -3.22973,-7.3175 -7.18156,-7.3175 z m -21.12498,0 c -3.95184,0 -7.22812,3.2814 -7.22812,7.3175 0,4.0358 3.26733,7.3174 7.22812,7.3174 3.96109,0 7.135,-3.2908 7.135,-7.3174 0,-4.0267 -3.18302,-7.3175 -7.135,-7.3175 z m -21.68451,0 c -3.95184,0 -7.18156,3.2908 -7.18156,7.3175 0,4.0266 3.22047,7.3174 7.18156,7.3174 3.96094,0 7.135,-3.2908 7.13485,-7.3174 0,-4.0267 -3.18302,-7.3175 -7.13485,-7.3175 z m -21.68451,0 c -3.95198,0 -7.18171,3.2908 -7.18171,7.3175 0,4.0266 3.22062,7.3174 7.18171,7.3174 3.96094,0 7.18141,-3.2816 7.18141,-7.3174 0,-4.0361 -3.22972,-7.3175 -7.18141,-7.3175 z m -21.17176,0 c -3.95184,0 -7.18141,3.2908 -7.18141,7.3175 0,4.0266 3.22047,7.3174 7.18141,7.3174 3.96108,0 7.18171,-3.2908 7.18171,-7.3174 0,-4.0267 -3.22988,-7.3175 -7.18171,-7.3175 z m 85.66576,3.2785 c 2.20438,0 3.96392,1.8021 3.96392,4.039 0,2.2368 -1.76864,4.0387 -3.96392,4.0387 -2.19528,0 -3.96378,-1.7926 -3.96392,-4.0387 0,-2.2463 1.75938,-4.039 3.96392,-4.039 z m -21.12498,0 c 2.20468,0 3.91721,1.7927 3.91721,4.039 0,2.2461 -1.72193,4.0387 -3.91721,4.0387 -2.19514,0 -4.01034,-1.8019 -4.01034,-4.0387 0,-2.2369 1.80595,-4.039 4.01034,-4.039 z m -21.68451,0 c 2.20438,0 3.91721,1.7927 3.91721,4.039 0,2.2461 -1.72193,4.0387 -3.91721,4.0387 -2.19543,0 -3.96377,-1.7926 -3.96377,-4.0387 0,-2.2463 1.75924,-4.039 3.96377,-4.039 z m -21.68451,0 c 2.20453,0 3.96377,1.8021 3.96377,4.039 0,2.2368 -1.76849,4.0387 -3.96377,4.0387 -2.19528,0 -3.96392,-1.7926 -3.96392,-4.0387 0,-2.2463 1.75954,-4.039 3.96392,-4.039 z m -21.17176,0 c 2.20468,0 3.96392,1.7927 3.96392,4.039 0,2.2461 -1.76834,4.0387 -3.96392,4.0387 -2.19514,0 -3.96378,-1.7926 -3.96378,-4.0387 0,-2.2463 1.75954,-4.039 3.96378,-4.039 z"
       style="fill:#000000;fill-opacity:1;stroke:none;display:inline"
       inkscape:connector-curvature="0" />
  </g>
</svg>
