<?xml version="1.0" encoding="UTF-8" standalone="no"?>
<!-- Created with Inkscape (http://www.inkscape.org/) -->

<svg
   xmlns:dc="http://purl.org/dc/elements/1.1/"
   xmlns:cc="http://creativecommons.org/ns#"
   xmlns:rdf="http://www.w3.org/1999/02/22-rdf-syntax-ns#"
   xmlns:svg="http://www.w3.org/2000/svg"
   xmlns="http://www.w3.org/2000/svg"
   xmlns:sodipodi="http://sodipodi.sourceforge.net/DTD/sodipodi-0.dtd"
   xmlns:inkscape="http://www.inkscape.org/namespaces/inkscape"
   width="133"
   height="62.674679"
   id="svg26558"
   version="1.1"
   inkscape:version="0.48.4 r9939"
   sodipodi:docname="New document 33">
  <defs
     id="defs26560" />
  <sodipodi:namedview
     id="base"
     pagecolor="#ffffff"
     bordercolor="#666666"
     borderopacity="1.0"
     inkscape:pageopacity="0.0"
     inkscape:pageshadow="2"
     inkscape:zoom="0.35"
     inkscape:cx="-423.5"
     inkscape:cy="31.337337"
     inkscape:document-units="px"
     inkscape:current-layer="layer1"
     showgrid="false"
     fit-margin-top="0"
     fit-margin-left="0"
     fit-margin-right="0"
     fit-margin-bottom="0"
     inkscape:window-width="1024"
     inkscape:window-height="720"
     inkscape:window-x="0"
     inkscape:window-y="0"
     inkscape:window-maximized="1" />
  <metadata
     id="metadata26563">
    <rdf:RDF>
      <cc:Work
         rdf:about="">
        <dc:format>image/svg+xml</dc:format>
        <dc:type
           rdf:resource="http://purl.org/dc/dcmitype/StillImage" />
        <dc:title></dc:title>
      </cc:Work>
    </rdf:RDF>
  </metadata>
  <g
     inkscape:label="Layer 1"
     inkscape:groupmode="layer"
     id="layer1"
     transform="translate(-308.5,-501.02484)">
    <path
       inkscape:connector-curvature="0"
       id="path11373"
       d="m 342.99955,501.02484 c -8.99646,0 -17.14253,1.48961 -23.3397,4.08028 -3.09858,1.29559 -5.72923,2.85515 -7.73238,4.83541 -2.003,1.98005 -3.42747,4.54835 -3.42747,7.40584 0,0.48035 0.0939,0.88432 0.16316,1.30568 -0.0694,0.42129 -0.16316,0.82525 -0.16316,1.30575 0,4.58987 3.39326,8.10776 7.73231,10.56816 1.17929,0.66874 2.46442,1.2798 3.83553,1.83626 -1.37111,0.55638 -2.65624,1.16737 -3.83553,1.83618 -4.33905,2.4604 -7.73231,5.97829 -7.73231,10.56816 0,0.48028 0.0939,0.88446 0.16316,1.30575 -0.0694,0.42136 -0.16316,0.82533 -0.16316,1.30568 0,2.85749 1.42447,5.42579 3.42747,7.40584 2.00315,1.98026 4.6338,3.53982 7.73238,4.83541 6.19717,2.59067 14.34324,4.08028 23.3397,4.08028 8.99647,0 17.15862,-1.48997 23.36025,-4.08028 3.10085,-1.29522 5.72719,-2.85559 7.73216,-4.83541 0.32648,-0.32209 0.60602,-0.68841 0.8977,-1.04039 0.29409,0.35564 0.58913,0.71508 0.91816,1.04039 2.00307,1.98026 4.6338,3.53982 7.73231,4.83541 6.19724,2.59067 14.34338,4.08028 23.33985,4.08028 8.99646,0 17.1584,-1.48997 23.36017,-4.08028 3.10092,-1.29522 5.72726,-2.85559 7.73238,-4.83541 2.00512,-1.97968 3.42747,-4.54681 3.42747,-7.40584 0,-0.47992 -0.0939,-0.88395 -0.16316,-1.30568 0.0694,-0.4218 0.16316,-0.82576 0.16316,-1.30575 0,-4.59279 -3.38924,-8.10835 -7.73231,-10.56816 -1.18045,-0.66867 -2.48372,-1.27988 -3.85592,-1.83618 1.3722,-0.55638 2.67547,-1.16759 3.85592,-1.83626 4.34307,-2.45981 7.73231,-5.97537 7.73231,-10.56816 0,-0.47999 -0.0939,-0.88395 -0.16316,-1.30575 0.0694,-0.42173 0.16316,-0.82576 0.16316,-1.30568 0,-2.85903 -1.42235,-5.42616 -3.42747,-7.40584 -2.00512,-1.97982 -4.63146,-3.54019 -7.73238,-4.83541 -6.20177,-2.59031 -14.36371,-4.08028 -23.36017,-4.08028 -8.99647,0 -17.14261,1.48961 -23.33985,4.08028 -3.09851,1.29559 -5.72924,2.85515 -7.73231,4.83541 -0.32903,0.32531 -0.62407,0.68475 -0.91816,1.04039 -0.29168,-0.35198 -0.57122,-0.7183 -0.8977,-1.04039 -2.00497,-1.97982 -4.63131,-3.54019 -7.73216,-4.83541 -6.20163,-2.59031 -14.36378,-4.08028 -23.36025,-4.08028 z m 0,6.52847 c 8.25924,0 15.72136,1.43529 20.8304,3.57038 2.55448,1.06751 4.51355,2.32429 5.67163,3.46834 1.15823,1.14434 1.48946,2.00687 1.48946,2.75434 0,0.7474 -0.33123,1.61 -1.48946,2.75434 -0.91268,0.90165 -2.33444,1.86031 -4.14153,2.75406 0.0183,-0.0417 0.0468,-0.0763 0.0614,-0.12223 0.11864,-0.38949 0.007,-0.77752 -0.12238,-0.99982 -0.12866,-0.22223 -0.26675,-0.34819 -0.40798,-0.46917 -0.28276,-0.24204 -0.60265,-0.4457 -0.99974,-0.65288 -0.79404,-0.41449 -1.89511,-0.85661 -3.28478,-1.36693 -2.71808,-0.99814 -6.57057,-2.1824 -10.99647,-3.407 -0.57465,-0.69374 -1.37066,-1.17424 -2.36675,-1.50993 -1.20378,-0.40557 -2.66027,-0.63241 -4.24359,-0.63241 -0.45952,0 -0.86962,0.0249 -1.26488,0.0614 -4.5069,-1.09595 -8.69061,-1.97405 -12.09834,-2.59089 -2.17574,-0.39402 -3.9783,-0.6634 -5.44721,-0.81611 4.96378,-1.70518 11.5837,-2.79528 18.81043,-2.79528 z m 63.98043,0 c 8.25923,0 15.72128,1.43529 20.83032,3.57038 2.55463,1.06751 4.51362,2.32429 5.67171,3.46834 1.15801,1.14434 1.48938,2.00687 1.48938,2.75434 0,0.7474 -0.33137,1.61 -1.48938,2.75434 -1.15809,1.1442 -3.11708,2.40075 -5.67171,3.46819 -1.25955,0.52648 -2.65997,0.99792 -4.1824,1.4282 -0.21652,-0.17194 -0.39504,-0.32706 -0.63233,-0.51004 -2.17289,-1.67535 -5.38668,-3.89174 -8.95655,-6.22275 0.1329,-0.2859 0.24474,-0.58109 0.24474,-0.91794 0,-0.70054 -0.34226,-1.30868 -0.79557,-1.75453 -0.4533,-0.44599 -1.0186,-0.7884 -1.67294,-1.06093 -1.30853,-0.54512 -2.99156,-0.83651 -4.83527,-0.83651 -0.0814,0 -0.10132,0 -0.16324,0 -3.42864,-2.07632 -6.69711,-3.9296 -9.50723,-5.44735 3.02138,-0.43518 6.27027,-0.69374 9.67047,-0.69374 z m -16.50516,2.10161 c 0.008,0.007 0.0117,0.0139 0.0205,0.0205 2.31938,1.77982 5.7432,4.12011 9.52763,6.56926 -0.18678,0.33005 -0.32641,0.69235 -0.32641,1.10179 0,0.69806 0.34446,1.30802 0.79565,1.7546 0.45118,0.44651 1.0208,0.78797 1.67301,1.06086 1.30422,0.54571 2.97117,0.83651 4.81481,0.83651 0.24401,0 0.44439,-0.007 0.65295,-0.0205 3.48405,2.0848 6.75208,3.9462 9.50723,5.40649 -3.15794,0.48079 -6.57452,0.75485 -10.16018,0.75485 -8.25916,0 -15.72129,-1.43521 -20.83032,-3.57038 -2.55449,-1.06744 -4.49316,-2.32399 -5.65146,-3.46819 -1.15801,-1.14434 -1.48924,-2.00694 -1.48924,-2.75434 0,-0.74747 0.33123,-1.61 1.48924,-2.75434 1.1583,-1.14405 3.09697,-2.40083 5.65146,-3.46834 1.29887,-0.54278 2.74761,-1.02855 4.32516,-1.46877 z m -70.5295,2.52985 c 0.0102,0.0197 0.03,0.0431 0.0409,0.0607 0.13173,0.22282 0.26325,0.34724 0.40799,0.46932 0.28941,0.24431 0.60879,0.44037 1.02007,0.65273 0.82261,0.42531 1.96506,0.90245 3.40714,1.42834 2.74236,0.9999 6.68564,2.1696 11.09867,3.38668 0.14869,0.35499 0.34731,0.68044 0.61194,0.93841 0.45257,0.44103 1.02219,0.77021 1.67309,1.04054 1.30136,0.54067 2.95932,0.83651 4.79433,0.83651 1.00121,0 1.92303,-0.11952 2.77474,-0.28568 5.08236,1.18937 9.62975,2.0886 12.95524,2.59103 1.68369,0.25447 3.07388,0.41617 4.10074,0.44877 0.19073,0.007 0.36208,0 0.53051,0 -5.09157,2.03013 -12.34894,3.38683 -20.36123,3.38683 -8.25916,0 -15.72121,-1.43522 -20.83032,-3.57038 -2.55456,-1.06744 -4.49315,-2.324 -5.65124,-3.46819 -1.15808,-1.14434 -1.48938,-2.00695 -1.48938,-2.75435 0,-0.74747 0.3313,-1.61 1.48938,-2.75434 0.7925,-0.78307 1.95636,-1.61556 3.42732,-2.40726 z m 23.05423,22.78888 c 8.25924,0 15.72136,1.43521 20.8304,3.57031 2.55448,1.06758 4.51355,2.32406 5.67163,3.46826 1.15823,1.14434 1.48946,2.00694 1.48946,2.75434 0,0.74747 -0.33123,1.60993 -1.48946,2.75427 -0.91268,0.90164 -2.33444,1.86045 -4.14153,2.75427 0.0183,-0.0417 0.0468,-0.0765 0.0614,-0.12252 0.11864,-0.38934 0.007,-0.77751 -0.12238,-0.9996 -0.12866,-0.22215 -0.26675,-0.34825 -0.40798,-0.46924 -0.28276,-0.24204 -0.60265,-0.44563 -0.99974,-0.65287 -0.79404,-0.41442 -1.89511,-0.85662 -3.28478,-1.36694 -2.71808,-0.99821 -6.57057,-2.18232 -10.99647,-3.40708 -0.57465,-0.69352 -1.37066,-1.17416 -2.36675,-1.50977 -1.20378,-0.40572 -2.66027,-0.63248 -4.24359,-0.63248 -0.45952,0 -0.86962,0.0249 -1.26488,0.0614 -4.5069,-1.09609 -8.69061,-1.97398 -12.09834,-2.59111 -2.17574,-0.39387 -3.9783,-0.6634 -5.44721,-0.81604 4.96378,-1.70496 11.5837,-2.79506 18.81043,-2.79506 z m 63.98043,0 c 8.25923,0 15.72128,1.43521 20.83032,3.57031 2.55463,1.06758 4.51362,2.32406 5.67171,3.46826 1.15801,1.14434 1.48938,2.00694 1.48938,2.75434 0,0.74747 -0.33137,1.60993 -1.48938,2.75427 -0.91261,0.90164 -2.33445,1.86045 -4.14154,2.75427 0.0183,-0.0417 0.0468,-0.0765 0.0614,-0.12252 0.11857,-0.38934 0.007,-0.77751 -0.12252,-0.9996 -0.12859,-0.22215 -0.26675,-0.34825 -0.40813,-0.46924 -0.28261,-0.24204 -0.60251,-0.44563 -0.99967,-0.65287 -0.79396,-0.41442 -1.89518,-0.85662 -3.2847,-1.36694 -2.71809,-0.99821 -6.57079,-2.18232 -10.99669,-3.40708 -0.57458,-0.69352 -1.37037,-1.17416 -2.36646,-1.50977 -1.204,-0.40572 -2.66019,-0.63248 -4.24366,-0.63248 -0.45974,0 -0.8697,0.0249 -1.26489,0.0614 -4.50697,-1.09609 -8.69075,-1.97398 -12.09834,-2.59111 -2.17566,-0.39387 -3.97829,-0.6634 -5.44735,-0.81604 4.96386,-1.70496 11.5837,-2.79506 18.81058,-2.79506 z m -87.03466,4.63124 c 0.0102,0.0197 0.03,0.0431 0.0409,0.0614 0.13173,0.22267 0.26325,0.34724 0.40799,0.46925 0.28941,0.24416 0.60879,0.44029 1.02007,0.65287 0.82261,0.42502 1.96506,0.90223 3.40714,1.42805 2.74236,0.99997 6.68564,2.16975 11.09867,3.38683 0.14869,0.35491 0.34731,0.68051 0.61194,0.93841 0.45257,0.44095 1.02219,0.77028 1.67309,1.04054 1.30136,0.54066 2.95932,0.83643 4.79433,0.83643 1.00121,0 1.92303,-0.11959 2.77474,-0.28561 5.08236,1.18923 9.62975,2.08861 12.95524,2.59104 1.68369,0.25447 3.07388,0.41617 4.10074,0.44884 0.19073,0.007 0.36208,0 0.53051,0 -5.09157,2.03005 -12.34894,3.38676 -20.36123,3.38676 -8.25916,0 -15.72121,-1.43529 -20.83032,-3.57046 -2.55456,-1.06744 -4.49315,-2.32399 -5.65124,-3.46819 -1.15808,-1.14434 -1.48938,-2.0068 -1.48938,-2.75427 0,-0.7474 0.3313,-1.61 1.48938,-2.75434 0.7925,-0.78293 1.95636,-1.61556 3.42732,-2.40733 z m 63.98049,0 c 0.0102,0.0197 0.03,0.0431 0.0409,0.0614 0.13188,0.22267 0.26331,0.34724 0.40806,0.46925 0.28956,0.24416 0.60879,0.44029 1.01999,0.65287 0.82255,0.42502 1.96521,0.90223 3.40722,1.42805 2.74236,0.99997 6.68571,2.16975 11.09867,3.38683 0.14862,0.35491 0.34731,0.68051 0.61201,0.93841 0.4525,0.44095 1.02219,0.77028 1.67287,1.04054 1.30158,0.54066 2.95947,0.83643 4.79455,0.83643 1.00106,0 1.92303,-0.11959 2.77467,-0.28561 5.08243,1.18923 9.62975,2.08861 12.9551,2.59104 1.68398,0.25447 3.07409,0.41617 4.10088,0.44884 0.19073,0.007 0.36201,0 0.53036,0 -5.09128,2.03005 -12.34886,3.38676 -20.36101,3.38676 -8.25915,0 -15.72128,-1.43529 -20.83032,-3.57046 -2.55448,-1.06744 -4.49315,-2.32399 -5.65146,-3.46819 -1.15801,-1.14434 -1.48923,-2.0068 -1.48923,-2.75427 0,-0.7474 0.33122,-1.61 1.48923,-2.75434 0.79272,-0.78293 1.95658,-1.61556 3.42762,-2.40733 z"
       style="font-size:medium;font-style:normal;font-variant:normal;font-weight:normal;font-stretch:normal;text-indent:0;text-align:start;text-decoration:none;line-height:normal;letter-spacing:normal;word-spacing:normal;text-transform:none;direction:ltr;block-progression:tb;writing-mode:lr-tb;text-anchor:start;baseline-shift:baseline;color:#000000;fill:#000000;fill-opacity:1;fill-rule:nonzero;stroke:none;stroke-width:10;marker:none;visibility:visible;display:inline;overflow:visible;enable-background:accumulate;font-family:Sans;-inkscape-font-specification:Sans" />
  </g>
</svg>
